<svg id="Layer_1" data-name="Layer 1" xmlns="http://www.w3.org/2000/svg" viewBox="0 0 3247.66 986.62"><defs><style>.cls-1{fill:#002f34;}</style></defs><path class="cls-1" d="M493.31,986.62C221.3,986.62,0,765.32,0,493.31H85c0,225.15,183.18,408.33,408.33,408.33Z"/><path class="cls-1" d="M3247.66,493.31h-85C3162.68,268.15,2979.51,85,2754.35,85V0C3026.36,0,3247.66,221.29,3247.66,493.31Z"/><path class="cls-1" d="M807.61,157.85H910.12l169.41,383.88L1254,157.85h87.25V666.79H1256.2V325.08l-152,341.71h-62.52L892.67,325.08V666.79H807.61Z"/><path class="cls-1" d="M1767.1,489.39c0,105.42-80.7,184.67-184.67,184.67s-184-79.25-184-184.67,80-185.4,184-185.4S1767.1,384,1767.1,489.39Zm-288.64,0c0,60.35,45.08,106.88,104,106.88s104.69-46.53,104.69-106.88c0-61.07-45.8-107.6-104.69-107.6S1478.46,428.32,1478.46,489.39Z"/><path class="cls-1" d="M2159.49,463.94V666.79h-81.43V477c0-57.44-33.44-92.34-83.61-92.34-36.35,0-71.25,18.9-89.42,49.44V666.79h-80.71V311.26H1905v48c21.8-34.17,64-55.26,109-55.26C2102.78,304,2159.49,365.79,2159.49,463.94Z"/><path class="cls-1" d="M2564.6,508.29H2294.14c8.72,57.44,48,92.34,105.42,92.34,40,0,76.34-17.45,93.06-45.08L2557.33,597c-26.18,48-85.79,77.07-159.23,77.07-102.51,0-184.67-80.7-184.67-186.85C2213.43,384,2294.14,304,2396.65,304c96,0,170.86,74.16,170.86,169.4C2567.51,482.85,2566.78,497.38,2564.6,508.29Zm-82.16-61.8c-4.36-44.35-41.44-75.61-90.15-75.61S2309.4,400,2297,446.49Z"/><path class="cls-1" d="M2936.85,311.26,2736.18,791.84h-87.25l64-144-141-336.62h87.24l95.24,242.11,95.25-242.11Z"/><path class="cls-1" d="M666.1,446.5C653.5,364.55,584,304,497.3,304c-88.55,0-160.79,59.71-178.83,142.51H241.32v61.8h73.89c10.07,95.56,88,165.76,183.55,165.76,73.42,0,133-29.09,159.21-77.07l-64.71-41.44c-16.71,27.63-53.07,45.07-93.06,45.07-57.43,0-96.69-34.89-105.41-92.32H723.44l20.4-61.8ZM492.94,370.89c48.71,0,85.78,31.25,90.15,75.61H397.69C410.05,400,444.23,370.89,492.94,370.89Z"/></svg>